<svg xmlns="http://www.w3.org/2000/svg" width="22" height="22" viewBox="0 0 22 22" fill="none">
  <path d="M11.9166 3.66667C11.9166 3.16041 11.5062 2.75 10.9999 2.75C10.4937 2.75 10.0833 3.16041 10.0833 3.66667V10.3781C9.50189 10.3581 8.92102 10.3189 8.34159 10.2607C7.97961 10.2243 7.63037 10.4054 7.45158 10.7223C7.27279 11.0391 7.2983 11.4317 7.51658 11.7228C8.24038 12.6878 9.08005 13.5593 10.0162 14.3179C10.3025 14.5499 10.6515 14.6667 10.9999 14.6667C11.3483 14.6667 11.6973 14.5499 11.9836 14.3179C12.9198 13.5593 13.7595 12.6878 14.4833 11.7228C14.7015 11.4317 14.727 11.0391 14.5483 10.7223C14.3695 10.4054 14.0202 10.2243 13.6582 10.2607C13.0788 10.3189 12.4979 10.3581 11.9166 10.3781V3.66667Z" fill="black" fill-opacity="0.32"/>
  <path d="M3.66659 13.75C3.66659 13.2437 3.25618 12.8333 2.74992 12.8333C2.24366 12.8333 1.83325 13.2437 1.83325 13.75C1.83325 16.7876 4.29569 19.25 7.33325 19.25H14.6666C17.7041 19.25 20.1666 16.7876 20.1666 13.75C20.1666 13.2437 19.7562 12.8333 19.2499 12.8333C18.7437 12.8333 18.3333 13.2437 18.3333 13.75C18.3333 15.775 16.6916 17.4167 14.6666 17.4167H7.33325C5.30821 17.4167 3.66659 15.775 3.66659 13.75Z" fill="black" fill-opacity="0.32"/>
</svg>