<svg width="1535" height="213" viewBox="0 0 1535 213" fill="none" xmlns="http://www.w3.org/2000/svg">
<g opacity="0.35">
<path d="M0.19969 210V3.45454H82.8986C98.0936 3.45454 110.767 5.70691 120.92 10.2116C131.072 14.7164 138.703 20.9692 143.813 28.9702C148.923 36.9039 151.478 46.0478 151.478 56.402C151.478 64.4702 149.864 71.5634 146.637 77.6818C143.41 83.733 138.972 88.7083 133.325 92.608C127.744 96.4403 121.357 99.1633 114.163 100.777V102.794C122.029 103.13 129.391 105.349 136.249 109.45C143.175 113.552 148.789 119.3 153.092 126.696C157.395 134.025 159.546 142.765 159.546 152.918C159.546 163.877 156.823 173.66 151.377 182.266C145.998 190.804 138.031 197.562 127.475 202.537C116.919 207.512 103.909 210 88.4454 210H0.19969ZM43.8687 174.298H79.4696C91.6391 174.298 100.514 171.979 106.095 167.339C111.675 162.633 114.465 156.38 114.465 148.581C114.465 142.866 113.087 137.823 110.33 133.453C107.574 129.083 103.641 125.654 98.5307 123.166C93.488 120.679 87.4705 119.435 80.4781 119.435H43.8687V174.298ZM43.8687 89.8849H76.2423C82.2262 89.8849 87.5378 88.8428 92.177 86.7585C96.8834 84.607 100.581 81.5814 103.271 77.6818C106.027 73.7822 107.406 69.1094 107.406 63.6634C107.406 56.2003 104.75 50.1828 99.4383 45.6108C94.194 41.0388 86.7309 38.7528 77.0491 38.7528H43.8687V89.8849ZM215.042 210H168.247L239.549 3.45454H295.825L367.027 210H320.231L268.494 50.6534H266.88L215.042 210ZM212.118 128.814H322.652V162.902H212.118V128.814ZM490.699 62.8565C489.892 54.7211 486.429 48.401 480.311 43.8963C474.193 39.3916 465.889 37.1392 455.4 37.1392C448.274 37.1392 442.256 38.1477 437.348 40.1648C432.44 42.1146 428.675 44.8376 426.052 48.3338C423.498 51.83 422.22 55.7969 422.22 60.2344C422.086 63.9323 422.859 67.1596 424.54 69.9162C426.288 72.6728 428.675 75.0597 431.7 77.0767C434.726 79.0265 438.222 80.741 442.189 82.2202C446.156 83.6321 450.391 84.8423 454.896 85.8508L473.453 90.2883C482.462 92.3054 490.732 94.9948 498.263 98.3565C505.793 101.718 512.315 105.853 517.828 110.761C523.341 115.67 527.611 121.452 530.636 128.108C533.729 134.764 535.309 142.395 535.376 151.001C535.309 163.642 532.082 174.601 525.694 183.879C519.374 193.09 510.23 200.251 498.263 205.361C486.362 210.403 472.007 212.925 455.199 212.925C438.525 212.925 424.002 210.37 411.631 205.26C399.327 200.15 389.712 192.586 382.787 182.568C375.929 172.483 372.332 160.011 371.996 145.152H414.253C414.723 152.077 416.707 157.859 420.203 162.499C423.766 167.071 428.507 170.533 434.423 172.886C440.407 175.172 447.164 176.315 454.694 176.315C462.09 176.315 468.511 175.24 473.957 173.088C479.471 170.937 483.74 167.945 486.766 164.112C489.791 160.28 491.304 155.876 491.304 150.901C491.304 146.261 489.926 142.362 487.169 139.202C484.48 136.042 480.513 133.352 475.268 131.134C470.091 128.915 463.738 126.898 456.207 125.082L433.717 119.435C416.303 115.199 402.554 108.576 392.469 99.5668C382.383 90.5573 377.374 78.4214 377.442 63.1591C377.374 50.6534 380.703 39.7277 387.426 30.3821C394.217 21.0365 403.529 13.7415 415.362 8.49715C427.195 3.25283 440.642 0.630674 455.703 0.630674C471.033 0.630674 484.412 3.25283 495.842 8.49715C507.339 13.7415 516.282 21.0365 522.669 30.3821C529.056 39.7277 532.351 50.5525 532.552 62.8565H490.699ZM556.23 210V3.45454H695.406V39.4588H599.899V88.6747H688.245V124.679H599.899V173.996H695.809V210H556.23Z" fill="white" fill-opacity="0.28"/>
<path d="M778.815 210V3.45454H822.484V173.996H911.032V210H778.815ZM1113.19 106.727C1113.19 129.251 1108.92 148.413 1100.38 164.213C1091.91 180.013 1080.35 192.082 1065.69 200.419C1051.1 208.689 1034.7 212.824 1016.47 212.824C998.12 212.824 981.647 208.655 967.057 200.318C952.467 191.981 940.937 179.912 932.465 164.112C923.993 148.312 919.758 129.184 919.758 106.727C919.758 84.2036 923.993 65.0417 932.465 49.2415C940.937 33.4413 952.467 21.4062 967.057 13.1364C981.647 4.79924 998.12 0.630674 1016.47 0.630674C1034.7 0.630674 1051.1 4.79924 1065.69 13.1364C1080.35 21.4062 1091.91 33.4413 1100.38 49.2415C1108.92 65.0417 1113.19 84.2036 1113.19 106.727ZM1068.92 106.727C1068.92 92.1373 1066.73 79.8333 1062.36 69.8153C1058.06 59.7973 1051.97 52.1998 1044.11 47.0227C1036.24 41.8456 1027.03 39.2571 1016.47 39.2571C1005.92 39.2571 996.708 41.8456 988.841 47.0227C980.975 52.1998 974.857 59.7973 970.486 69.8153C966.183 79.8333 964.032 92.1373 964.032 106.727C964.032 121.317 966.183 133.621 970.486 143.639C974.857 153.657 980.975 161.255 988.841 166.432C996.708 171.609 1005.92 174.197 1016.47 174.197C1027.03 174.197 1036.24 171.609 1044.11 166.432C1051.97 161.255 1058.06 153.657 1062.36 143.639C1066.73 133.621 1068.92 121.317 1068.92 106.727ZM1273.98 70.2188C1272.57 65.3106 1270.58 60.974 1268.03 57.2088C1265.47 53.3764 1262.35 50.1492 1258.65 47.527C1255.02 44.8376 1250.85 42.7869 1246.14 41.375C1241.5 39.9631 1236.36 39.2571 1230.71 39.2571C1220.16 39.2571 1210.88 41.8793 1202.88 47.1236C1194.94 52.3679 1188.76 59.999 1184.32 70.017C1179.88 79.9678 1177.66 92.1373 1177.66 106.526C1177.66 120.914 1179.85 133.151 1184.22 143.236C1188.59 153.321 1194.78 161.019 1202.78 166.331C1210.78 171.575 1220.22 174.197 1231.12 174.197C1241 174.197 1249.44 172.449 1256.43 168.953C1263.49 165.39 1268.87 160.381 1272.57 153.926C1276.33 147.472 1278.21 139.84 1278.21 131.033L1287.09 132.344H1233.84V99.4659H1320.27V125.486C1320.27 143.639 1316.44 159.238 1308.77 172.281C1301.11 185.258 1290.55 195.276 1277.1 202.335C1263.66 209.328 1248.26 212.824 1230.91 212.824C1211.55 212.824 1194.54 208.554 1179.88 200.016C1165.23 191.41 1153.8 179.206 1145.59 163.406C1137.46 147.539 1133.39 128.713 1133.39 106.929C1133.39 90.1875 1135.81 75.2614 1140.65 62.1506C1145.56 48.9725 1152.42 37.8116 1161.23 28.6676C1170.03 19.5237 1180.29 12.5649 1191.99 7.79118C1203.68 3.01751 1216.36 0.630674 1230.01 0.630674C1241.71 0.630674 1252.6 2.34516 1262.68 5.77414C1272.77 9.13589 1281.71 13.9096 1289.51 20.0952C1297.38 26.2808 1303.8 33.643 1308.77 42.1818C1313.75 50.6534 1316.94 59.999 1318.35 70.2188H1273.98ZM1534.36 106.727C1534.36 129.251 1530.09 148.413 1521.55 164.213C1513.08 180.013 1501.51 192.082 1486.85 200.419C1472.26 208.689 1455.86 212.824 1437.64 212.824C1419.28 212.824 1402.81 208.655 1388.22 200.318C1373.63 191.981 1362.1 179.912 1353.63 164.112C1345.16 148.312 1340.92 129.184 1340.92 106.727C1340.92 84.2036 1345.16 65.0417 1353.63 49.2415C1362.1 33.4413 1373.63 21.4062 1388.22 13.1364C1402.81 4.79924 1419.28 0.630674 1437.64 0.630674C1455.86 0.630674 1472.26 4.79924 1486.85 13.1364C1501.51 21.4062 1513.08 33.4413 1521.55 49.2415C1530.09 65.0417 1534.36 84.2036 1534.36 106.727ZM1490.08 106.727C1490.08 92.1373 1487.9 79.8333 1483.53 69.8153C1479.22 59.7973 1473.14 52.1998 1465.27 47.0227C1457.41 41.8456 1448.19 39.2571 1437.64 39.2571C1427.08 39.2571 1417.87 41.8456 1410 47.0227C1402.14 52.1998 1396.02 59.7973 1391.65 69.8153C1387.35 79.8333 1385.19 92.1373 1385.19 106.727C1385.19 121.317 1387.35 133.621 1391.65 143.639C1396.02 153.657 1402.14 161.255 1410 166.432C1417.87 171.609 1427.08 174.197 1437.64 174.197C1448.19 174.197 1457.41 171.609 1465.27 166.432C1473.14 161.255 1479.22 153.657 1483.53 143.639C1487.9 133.621 1490.08 121.317 1490.08 106.727Z" fill="#0578FF" fill-opacity="0.11"/>
</g>
</svg>
