<svg xmlns="http://www.w3.org/2000/svg" width="22" height="22" viewBox="0 0 22 22" fill="none">
  <g clip-path="url(#clip0_40_1288)">
    <path d="M22 11C22 17.0748 17.0748 22 11 22C4.92521 22 0 17.0748 0 11C0 4.92521 4.92521 0 11 0C17.0761 0 22 4.92521 22 11Z" fill="black" fill-opacity="0.32"/>
    <path d="M5.42685 11.3696L5.4743 11.295L8.33584 6.8185C8.37767 6.75297 8.47598 6.75974 8.50762 6.83093C8.98568 7.90231 9.39818 9.23476 9.20493 10.0643C9.12243 10.4056 8.8964 10.8678 8.64211 11.295C8.60935 11.3572 8.57318 11.4182 8.53475 11.477C8.51666 11.5041 8.48615 11.5199 8.45337 11.5199H5.51047C5.43136 11.5199 5.38503 11.434 5.42685 11.3696Z" fill="#F3F3F3"/>
    <path d="M18.1819 12.2014V12.91C18.1819 12.9507 18.157 12.9869 18.1209 13.0027C17.8994 13.0976 17.141 13.4457 16.8257 13.8842C16.021 15.0042 15.4063 16.6056 14.032 16.6056H8.29874C6.26675 16.6056 4.62012 14.9533 4.62012 12.9145V12.849C4.62012 12.7947 4.66418 12.7507 4.71844 12.7507H7.91451C7.97778 12.7507 8.02411 12.8094 8.01848 12.8716C7.99586 13.0795 8.0343 13.292 8.13262 13.4852C8.32248 13.8706 8.71577 14.1114 9.1407 14.1114H10.7229V12.8761H9.15878C9.07855 12.8761 9.0311 12.7834 9.07743 12.7179C9.09437 12.6919 9.1136 12.6648 9.13392 12.6343C9.28198 12.4241 9.49332 12.0974 9.70353 11.7256C9.84705 11.4747 9.98605 11.2069 10.0979 10.9379C10.1206 10.8893 10.1386 10.8396 10.1567 10.791C10.1872 10.7051 10.2189 10.6248 10.2415 10.5446C10.2641 10.4768 10.2821 10.4056 10.3002 10.3389C10.3534 10.1106 10.376 9.86878 10.376 9.61789C10.376 9.51957 10.3714 9.41672 10.3624 9.3184C10.3579 9.21104 10.3443 9.10366 10.3307 8.9963C10.3217 8.90137 10.3048 8.80756 10.2867 8.70924C10.2641 8.56572 10.2324 8.42333 10.1963 8.27978L10.1838 8.22555C10.1567 8.12721 10.1341 8.03343 10.1025 7.93511C10.0132 7.62656 9.91035 7.32595 9.80184 7.04455C9.76229 6.93266 9.71708 6.8253 9.67187 6.71794C9.60521 6.55632 9.53738 6.40941 9.47523 6.27039C9.44359 6.2071 9.41647 6.14946 9.38934 6.09069C9.35883 6.02401 9.32719 5.95733 9.29554 5.89406C9.27294 5.84546 9.24694 5.80025 9.22885 5.75504L9.03561 5.39791C9.00848 5.34932 9.05369 5.29168 9.1068 5.30637L10.3161 5.63411H10.3195C10.3217 5.63411 10.3228 5.63525 10.324 5.63525L10.4833 5.67932L10.6585 5.72906L10.7229 5.74712V5.02836C10.7229 4.6814 11.0009 4.39999 11.3445 4.39999C11.5163 4.39999 11.6722 4.47006 11.7841 4.5842C11.896 4.69836 11.9661 4.85432 11.9661 5.02836V6.09523L12.0949 6.13137C12.1051 6.13478 12.1153 6.13929 12.1243 6.14607C12.156 6.16981 12.2011 6.20483 12.2588 6.2478C12.304 6.28394 12.3526 6.32803 12.4114 6.37324C12.5278 6.46703 12.6668 6.58796 12.8193 6.72698C12.86 6.762 12.8996 6.79817 12.9357 6.83434C13.1324 7.01742 13.3528 7.23214 13.563 7.46948C13.6217 7.53616 13.6794 7.60396 13.7381 7.67516C13.7969 7.74749 13.8591 7.81868 13.9133 7.8899C13.9845 7.98483 14.0614 8.08315 14.1281 8.186C14.1597 8.23459 14.1959 8.28431 14.2264 8.33291C14.3123 8.46287 14.388 8.59737 14.4603 8.73186C14.4908 8.79401 14.5225 8.86181 14.5496 8.9285C14.6298 9.10819 14.6931 9.29128 14.7338 9.47436C14.7462 9.51392 14.7553 9.55686 14.7598 9.59529V9.60434C14.7734 9.65857 14.7779 9.71621 14.7824 9.77497C14.8005 9.96258 14.7914 10.1502 14.7508 10.3389C14.7338 10.4192 14.7112 10.4949 14.6841 10.5751C14.657 10.652 14.6298 10.7322 14.5948 10.8079C14.527 10.965 14.4467 11.1221 14.3518 11.269C14.3213 11.3233 14.2851 11.3809 14.249 11.4352C14.2094 11.4928 14.1687 11.547 14.1326 11.6002C14.0828 11.668 14.0297 11.7392 13.9755 11.8025C13.9269 11.8691 13.8772 11.9358 13.8229 11.9946C13.7472 12.0839 13.6749 12.1686 13.5991 12.25C13.5539 12.3031 13.5053 12.3574 13.4556 12.406C13.407 12.4602 13.3573 12.5088 13.3121 12.554C13.2364 12.6297 13.1731 12.6885 13.1199 12.7371L12.9956 12.8512C12.9776 12.8671 12.9538 12.8761 12.929 12.8761H11.9661V14.1114H13.1776C13.4488 14.1114 13.7065 14.0153 13.9145 13.839C13.9856 13.7768 14.2964 13.5079 14.6637 13.1021C14.6762 13.0886 14.692 13.0784 14.7101 13.0739L18.0564 12.1065C18.1186 12.0884 18.1819 12.1359 18.1819 12.2014Z" fill="#F3F3F3"/>
  </g>
  <defs>
    <clipPath id="clip0_40_1288">
      <rect width="22" height="22" fill="white"/>
    </clipPath>
  </defs>
</svg>