<svg xmlns="http://www.w3.org/2000/svg" width="22" height="22" viewBox="0 0 22 22" fill="none">
  <path d="M7.84891 2.83415C7.55973 2.74901 7.25599 2.74955 6.95412 2.75009L6.88241 2.75017L5.4564 2.75017C5.1756 2.75014 4.91093 2.75011 4.69717 2.76966C4.4854 2.78902 4.16764 2.83687 3.89089 3.04994C3.55187 3.31096 3.34609 3.70889 3.32906 4.1364C3.31515 4.4854 3.45978 4.77236 3.56638 4.95636C3.67399 5.14209 3.827 5.35805 3.98932 5.58717L8.6157 12.1185L3.573 17.8816C3.27297 18.2245 3.30772 18.7457 3.65061 19.0457C3.9935 19.3457 4.5147 19.311 4.81473 18.9681L9.59652 13.5032L12.8286 18.0662L12.87 18.1248C13.0441 18.3714 13.2192 18.6196 13.4558 18.8063C13.6625 18.9694 13.8985 19.0915 14.151 19.1658C14.4402 19.251 14.7439 19.2505 15.0458 19.2499L15.1175 19.2498L16.5435 19.2498C16.8243 19.2499 17.089 19.2499 17.3028 19.2303C17.5145 19.211 17.8323 19.1631 18.1091 18.9501C18.4481 18.689 18.6539 18.2911 18.6709 17.8636C18.6848 17.5146 18.5402 17.2276 18.4336 17.0436C18.326 16.8579 18.1729 16.6419 18.0106 16.4128L13.1074 9.49071L17.8082 4.11841C18.1082 3.77552 18.0735 3.25432 17.7306 2.95429C17.3877 2.65426 16.8665 2.68901 16.5665 3.0319L12.1266 8.10602L9.17131 3.93381L9.12993 3.87524C8.95588 3.6286 8.78076 3.38042 8.54413 3.19366C8.33746 3.03055 8.10147 2.90852 7.84891 2.83415Z" fill="black" fill-opacity="0.32"/>
</svg>